<svg width="468" height="56" viewBox="0 0 468 56" fill="none" xmlns="http://www.w3.org/2000/svg">
<path d="M21.11 5.17C9.23 5.17 0.32 13.475 0.32 24.695C0.32 35.97 9.23 44.44 21.11 44.44C33.045 44.44 41.955 35.915 41.955 24.695C41.955 13.53 33.045 5.17 21.11 5.17ZM21.22 13.365C27.16 13.365 31.89 18.26 31.89 24.75C31.89 31.24 27.16 36.245 21.22 36.245C15.335 36.245 10.33 31.24 10.33 24.75C10.33 18.26 15.28 13.365 21.22 13.365ZM75.9278 14.355H66.4128V28.985C66.4128 33 64.2678 35.97 60.6378 36.025C57.6128 36.025 55.6878 33.88 55.6878 30.36V14.355H46.1728V33.055C46.1728 39.985 50.3528 44.385 56.7878 44.385C61.0778 44.385 64.3778 42.625 66.4128 39.105V44H75.9278V14.355ZM93.0375 14.355H83.5225V44H93.0375V28.765C93.5325 24.585 97.1625 22 102.663 22.495V13.915C98.4275 13.97 95.0725 15.895 93.0375 19.36V14.355ZM138.422 14.025C134.682 14.025 131.657 15.565 129.567 18.26V14.355H120.052V54.67H129.567V40.04C131.657 42.79 134.792 44.33 138.642 44.33C146.947 44.33 152.337 38.335 152.337 29.315C152.337 20.13 146.782 14.025 138.422 14.025ZM136.112 36.795C132.262 36.795 129.567 33.66 129.567 29.04C129.567 24.53 132.262 21.34 136.112 21.34C140.072 21.34 142.767 24.53 142.767 29.04C142.767 33.605 140.072 36.795 136.112 36.795ZM162.214 0.824999C159.299 0.824999 157.209 2.915 157.209 5.83C157.209 8.8 159.299 10.89 162.214 10.89C165.129 10.89 167.219 8.8 167.219 5.83C167.219 2.915 165.129 0.824999 162.214 0.824999ZM166.889 44V14.355H157.429V44H166.889ZM187.434 14.025C178.249 14.025 172.034 20.13 172.034 29.26C172.034 38.28 178.194 44.33 187.324 44.33C193.594 44.33 198.379 41.8 200.799 37.455L193.869 33.385C192.604 35.64 190.514 36.74 187.819 36.74C184.134 36.74 181.604 33.77 181.604 29.205C181.604 24.75 184.134 21.725 187.819 21.725C190.404 21.725 192.439 22.88 193.814 24.805L200.634 20.68C198.049 16.445 193.319 14.025 187.434 14.025ZM218.373 32.56L224.808 44H236.083L224.863 25.74L235.753 14.355H224.973L215.183 24.75V3.19H205.668V44H215.183V35.915L218.373 32.56ZM249.899 13.915C243.024 13.915 237.854 17.215 237.854 23.32C237.799 33.715 253.144 31.46 253.144 35.805C253.144 37.18 251.769 37.84 249.899 37.84C246.599 37.84 242.749 36.52 239.394 34.155L236.369 40.205C239.944 42.955 244.729 44.385 249.679 44.385C256.829 44.385 262.164 41.03 262.164 34.925C262.219 24.585 246.599 26.565 246.599 22.495C246.599 21.12 247.809 20.46 249.514 20.46C251.989 20.46 255.289 21.505 258.864 23.43L262.109 17.27C258.479 15.125 254.189 13.915 249.899 13.915ZM294.841 10.285C295.941 10.285 297.261 10.725 298.306 11.495L301.661 4.84C299.406 3.52 296.271 2.75 293.356 2.75C286.976 2.75 282.026 6.38 282.026 12.925V15.675H278.011V21.945H282.026V44H291.431V21.945H298.141V15.675H291.431V13.53C291.431 11.33 292.916 10.23 294.841 10.285ZM314.694 14.025C304.959 14.025 298.469 20.02 298.469 29.15C298.469 38.28 304.959 44.33 314.694 44.33C324.374 44.33 330.864 38.28 330.864 29.15C330.864 20.02 324.374 14.025 314.694 14.025ZM314.694 21.56C318.599 21.56 321.294 24.695 321.294 29.26C321.294 33.88 318.599 36.96 314.694 36.96C310.734 36.96 308.039 33.88 308.039 29.26C308.039 24.695 310.734 21.56 314.694 21.56ZM345.479 14.355H335.964V44H345.479V28.765C345.974 24.585 349.604 22 355.104 22.495V13.915C350.869 13.97 347.514 15.895 345.479 19.36V14.355ZM400.709 14.355H391.249L384.814 34.045L377.554 14.355H367.764L380.084 43.34L379.369 44.825C378.599 46.42 377.389 47.19 375.684 47.19C374.309 47.19 373.154 46.695 371.779 45.595L367.819 52.085C370.459 54.12 373.154 55.11 376.454 55.11C381.954 55.11 385.694 52.47 387.894 47.08L400.709 14.355ZM416.906 14.025C407.171 14.025 400.681 20.02 400.681 29.15C400.681 38.28 407.171 44.33 416.906 44.33C426.586 44.33 433.076 38.28 433.076 29.15C433.076 20.02 426.586 14.025 416.906 14.025ZM416.906 21.56C420.811 21.56 423.506 24.695 423.506 29.26C423.506 33.88 420.811 36.96 416.906 36.96C412.946 36.96 410.251 33.88 410.251 29.26C410.251 24.695 412.946 21.56 416.906 21.56ZM467.051 14.355H457.536V28.985C457.536 33 455.391 35.97 451.761 36.025C448.736 36.025 446.811 33.88 446.811 30.36V14.355H437.296V33.055C437.296 39.985 441.476 44.385 447.911 44.385C452.201 44.385 455.501 42.625 457.536 39.105V44H467.051V14.355Z" fill="#0C261C"/>
</svg>
