<svg width="20" height="23" viewBox="0 0 20 23" fill="none" xmlns="http://www.w3.org/2000/svg">
<path d="M18.5089 9.31054L18.7956 9.58949L19.0746 9.30281L18.7879 9.02386L18.5089 9.31054ZM9.91802 0.951354L10.197 0.664671V0.664671L9.91802 0.951354ZM17.951 9.88391L17.6721 10.1706L17.9588 10.4495L18.2377 10.1629L17.951 9.88391ZM10.0391 2.18536L10.318 1.89867L9.63907 1.23804V2.18536H10.0391ZM10.0391 22.5159V22.9159H10.4391V22.5159H10.0391ZM9.23907 22.5159H8.83907V22.9159H9.23907V22.5159ZM9.23907 2.18536H9.63907V1.23804L8.96012 1.89867L9.23907 2.18536ZM1.32711 9.88391L1.04043 10.1629L1.31938 10.4495L1.60606 10.1706L1.32711 9.88391ZM0.769213 9.31054L0.490263 9.02386L0.203581 9.30281L0.482531 9.58949L0.769213 9.31054ZM9.36012 0.951354L9.08117 0.664671V0.664671L9.36012 0.951354ZM9.63907 0.679929L9.91802 0.393246L9.63907 0.121821L9.36012 0.393246L9.63907 0.679929ZM18.7879 9.02386L10.197 0.664671L9.63907 1.23804L18.23 9.59722L18.7879 9.02386ZM18.2377 10.1629L18.7956 9.58949L18.2222 9.03159L17.6643 9.60496L18.2377 10.1629ZM9.76012 2.47204L17.6721 10.1706L18.23 9.59722L10.318 1.89867L9.76012 2.47204ZM10.4391 22.5159V2.18536H9.63907L9.63907 22.5159H10.4391ZM9.23907 22.9159H10.0391V22.1159H9.23907V22.9159ZM8.83907 2.18536L8.83907 22.5159H9.63907L9.63907 2.18536H8.83907ZM1.60606 10.1706L9.51802 2.47204L8.96012 1.89867L1.04816 9.59722L1.60606 10.1706ZM0.482531 9.58949L1.04043 10.1629L1.61379 9.60496L1.05589 9.03159L0.482531 9.58949ZM9.08117 0.664671L0.490263 9.02386L1.04816 9.59722L9.63907 1.23804L9.08117 0.664671ZM9.36012 0.393246L9.08117 0.664671L9.63907 1.23804L9.91802 0.966612L9.36012 0.393246ZM10.197 0.664671L9.91802 0.393246L9.36012 0.966612L9.63907 1.23804L10.197 0.664671Z" fill="#15573F"/>
</svg>
