<svg width="401" height="122" viewBox="0 0 401 122" fill="none" xmlns="http://www.w3.org/2000/svg">
<path d="M31.395 13.2V5.5H2.85V44H12.64V29.81H29.91V22.11H12.64V13.2H31.395ZM40.7734 0.824999C37.8584 0.824999 35.7684 2.915 35.7684 5.83C35.7684 8.8 37.8584 10.89 40.7734 10.89C43.6884 10.89 45.7784 8.8 45.7784 5.83C45.7784 2.915 43.6884 0.824999 40.7734 0.824999ZM45.4484 44V14.355H35.9884V44H45.4484ZM72.4834 13.915C68.0834 13.97 64.6734 15.73 62.5834 19.195V14.355H53.0684V44H62.5834V28.325C62.9684 24.805 65.1684 22.33 68.6334 22.33C71.8234 22.33 73.8584 24.475 73.8584 27.94V44H83.3184V25.3C83.3184 18.37 79.0284 13.915 72.4834 13.915ZM119.94 3.19H110.425V18.26C108.335 15.51 105.2 13.97 101.295 13.97C93.1003 13.97 87.6553 19.965 87.6553 29.04C87.6553 38.225 93.1553 44.385 101.515 44.385C105.31 44.385 108.335 42.845 110.425 40.095V44H119.94V3.19ZM103.825 37.015C99.8653 37.015 97.2253 33.825 97.1703 29.26C97.2253 24.695 99.8653 21.56 103.825 21.56C107.785 21.56 110.425 24.695 110.425 29.26C110.425 33.825 107.785 37.015 103.825 37.015ZM169.054 14.355H159.594L153.159 34.045L145.899 14.355H136.109L148.429 43.34L147.714 44.825C146.944 46.42 145.734 47.19 144.029 47.19C142.654 47.19 141.499 46.695 140.124 45.595L136.164 52.085C138.804 54.12 141.499 55.11 144.799 55.11C150.299 55.11 154.039 52.47 156.239 47.08L169.054 14.355ZM185.251 14.025C175.516 14.025 169.026 20.02 169.026 29.15C169.026 38.28 175.516 44.33 185.251 44.33C194.931 44.33 201.421 38.28 201.421 29.15C201.421 20.02 194.931 14.025 185.251 14.025ZM185.251 21.56C189.156 21.56 191.851 24.695 191.851 29.26C191.851 33.88 189.156 36.96 185.251 36.96C181.291 36.96 178.596 33.88 178.596 29.26C178.596 24.695 181.291 21.56 185.251 21.56ZM235.396 14.355H225.881V28.985C225.881 33 223.736 35.97 220.106 36.025C217.081 36.025 215.156 33.88 215.156 30.36V14.355H205.641V33.055C205.641 39.985 209.821 44.385 216.256 44.385C220.546 44.385 223.846 42.625 225.881 39.105V44H235.396V14.355ZM252.505 14.355H242.99V44H252.505V28.765C253 24.585 256.63 22 262.13 22.495V13.915C257.895 13.97 254.54 15.895 252.505 19.36V14.355ZM298.66 13.915C294.26 13.97 290.85 15.73 288.76 19.195V14.355H279.245V44H288.76V28.325C289.145 24.805 291.345 22.33 294.81 22.33C298 22.33 300.035 24.475 300.035 27.94V44H309.495V25.3C309.495 18.37 305.205 13.915 298.66 13.915ZM329.232 14.025C320.047 14.025 313.777 20.075 313.777 29.26C313.777 38.28 319.827 44.33 329.507 44.33C334.952 44.33 339.407 42.405 342.432 39.105L337.427 34.21C335.447 36.19 332.917 37.235 330.332 37.235C326.812 37.235 324.282 35.255 323.347 31.735H344.192C344.852 20.9 339.682 14.025 329.232 14.025ZM323.182 26.62C323.787 23.045 326.042 20.625 329.342 20.625C332.752 20.625 335.062 22.99 335.062 26.62H323.182ZM360.598 22.88L355.648 14.355H344.758L354.218 28.82L344.098 44H354.548L360.598 34.705L365.988 44H376.933L366.868 28.765L376.273 14.355H365.878L360.598 22.88ZM398.297 35.805C396.867 36.41 395.602 36.795 394.612 36.795C392.852 36.85 391.862 35.86 391.862 33.55V21.945H399.617V15.675H391.862V7.48H382.402V15.73H378.277V21.945H382.402V35.035C382.402 41.195 386.527 44.44 392.247 44.44C395.107 44.44 398.022 43.67 400.167 42.405L398.297 35.805ZM31.12 80.355H21.66V83.985C19.68 81.4 16.71 79.97 12.915 80.025C5.49 80.025 0.375 85.635 0.375 94.05C0.375 102.685 5.655 108.405 13.135 108.405C16.82 108.405 19.735 106.975 21.66 104.445V107.58C21.66 111.265 18.91 113.685 14.345 113.685C11.155 113.685 7.855 112.585 5.16 110.715L1.86 117.15C5.215 119.405 9.89 121.055 15.06 121.055C24.63 121.055 31.12 115.72 31.12 107.305V80.355ZM15.5 101.53C11.76 101.53 9.23 98.56 9.23 94.325C9.23 90.035 11.76 87.065 15.5 87.065C19.185 87.065 21.66 89.98 21.66 94.325C21.66 98.56 19.185 101.53 15.5 101.53ZM47.9204 80.355H38.4054V110H47.9204V94.765C48.4154 90.585 52.0454 88 57.5454 88.495V79.915C53.3104 79.97 49.9554 81.895 47.9204 85.36V80.355ZM74.857 80.025C65.672 80.025 59.402 86.075 59.402 95.26C59.402 104.28 65.452 110.33 75.132 110.33C80.577 110.33 85.032 108.405 88.057 105.105L83.052 100.21C81.072 102.19 78.542 103.235 75.957 103.235C72.437 103.235 69.907 101.255 68.972 97.735H89.817C90.477 86.9 85.307 80.025 74.857 80.025ZM68.807 92.62C69.412 89.045 71.667 86.625 74.967 86.625C78.377 86.625 80.687 88.99 80.687 92.62H68.807ZM107.943 80.025C98.758 80.025 92.488 86.075 92.488 95.26C92.488 104.28 98.538 110.33 108.218 110.33C113.663 110.33 118.118 108.405 121.143 105.105L116.138 100.21C114.158 102.19 111.628 103.235 109.043 103.235C105.523 103.235 102.993 101.255 102.058 97.735H122.903C123.563 86.9 118.393 80.025 107.943 80.025ZM101.893 92.62C102.498 89.045 104.753 86.625 108.053 86.625C111.463 86.625 113.773 88.99 113.773 92.62H101.893ZM147.464 79.915C143.064 79.97 139.654 81.73 137.564 85.195V80.355H128.049V110H137.564V94.325C137.949 90.805 140.149 88.33 143.614 88.33C146.804 88.33 148.839 90.475 148.839 93.94V110H158.299V91.3C158.299 84.37 154.009 79.915 147.464 79.915ZM192.414 76.285C193.514 76.285 194.834 76.725 195.879 77.495L199.234 70.84C196.979 69.52 193.844 68.75 190.929 68.75C184.549 68.75 179.599 72.38 179.599 78.925V81.675H175.584V87.945H179.599V110H189.004V87.945H195.714V81.675H189.004V79.53C189.004 77.33 190.489 76.23 192.414 76.285ZM208.57 80.355H199.055V110H208.57V94.765C209.065 90.585 212.695 88 218.195 88.495V79.915C213.96 79.97 210.605 81.895 208.57 85.36V80.355ZM227.311 66.825C224.396 66.825 222.306 68.915 222.306 71.83C222.306 74.8 224.396 76.89 227.311 76.89C230.226 76.89 232.316 74.8 232.316 71.83C232.316 68.915 230.226 66.825 227.311 66.825ZM231.986 110V80.355H222.526V110H231.986ZM252.587 80.025C243.402 80.025 237.132 86.075 237.132 95.26C237.132 104.28 243.182 110.33 252.862 110.33C258.307 110.33 262.762 108.405 265.787 105.105L260.782 100.21C258.802 102.19 256.272 103.235 253.687 103.235C250.167 103.235 247.637 101.255 246.702 97.735H267.547C268.207 86.9 263.037 80.025 252.587 80.025ZM246.537 92.62C247.142 89.045 249.397 86.625 252.697 86.625C256.107 86.625 258.417 88.99 258.417 92.62H246.537ZM292.107 79.915C287.707 79.97 284.297 81.73 282.207 85.195V80.355H272.692V110H282.207V94.325C282.592 90.805 284.792 88.33 288.257 88.33C291.447 88.33 293.482 90.475 293.482 93.94V110H302.942V91.3C302.942 84.37 298.652 79.915 292.107 79.915ZM339.564 69.19H330.049V84.26C327.959 81.51 324.824 79.97 320.919 79.97C312.724 79.97 307.279 85.965 307.279 95.04C307.279 104.225 312.779 110.385 321.139 110.385C324.934 110.385 327.959 108.845 330.049 106.095V110H339.564V69.19ZM323.449 103.015C319.489 103.015 316.849 99.825 316.794 95.26C316.849 90.695 319.489 87.56 323.449 87.56C327.409 87.56 330.049 90.695 330.049 95.26C330.049 99.825 327.409 103.015 323.449 103.015Z" fill="#0B2A1E"/>
</svg>
